<?xml version="1.0" encoding="UTF-8"?>
<!DOCTYPE svg PUBLIC "-//W3C//DTD SVG 1.1//EN" "http://www.w3.org/Graphics/SVG/1.1/DTD/svg11.dtd">
<!-- Creator: CorelDRAW 2021 (64 Bit) -->
<svg xmlns="http://www.w3.org/2000/svg" xml:space="preserve" width="183.75mm" height="183.75mm" version="1.1" style="shape-rendering:geometricPrecision; text-rendering:geometricPrecision; image-rendering:optimizeQuality; fill-rule:evenodd; clip-rule:evenodd"
viewBox="0 0 18375 18375.01"
 xmlns:xlink="http://www.w3.org/1999/xlink"
 xmlns:xodm="http://www.corel.com/coreldraw/odm/2003">
 <defs>
  <style type="text/css">
   <![CDATA[
    .fil0 {fill:#FF0009;fill-rule:nonzero}
   ]]>
  </style>
 </defs>
 <g id="Camada_x0020_1">
  <metadata id="CorelCorpID_0Corel-Layer"/>
  <g id="_2001125800672">
   <path class="fil0" d="M9187.49 18375.01c-5073.25,-0.01 -9187.49,-4114.25 -9187.49,-9187.51 0,-5073.26 4114.24,-9187.51 9187.49,-9187.51 5073.26,0 9187.51,4114.24 9187.51,9187.51 -4.48,5070.86 -4116.63,9183.01 -9187.75,9187.51l0.24 0zm0 -17062.51c-4348.5,0 -7874.99,3526.49 -7874.99,7875 0,4348.5 3526.49,7874.99 7874.99,7874.99 4348.51,0 7875,-3526.49 7875,-7874.99 -3.85,-4346.5 -3528.5,-7871.15 -7875.12,-7875l0.12 0z"/>
   <path class="fil0" d="M10115.44 9187.51l2784.27 -2784.6c118.12,-122.37 184.22,-285.81 184.22,-455.9 0,-362.38 -293.87,-656.25 -656.25,-656.25 -170.09,0 -333.53,66.1 -455.87,184.19l-2784.31 2784.56 -2784.27 -2784.53c-122.37,-118.12 -285.81,-184.22 -455.9,-184.22 -362.38,0 -656.25,293.87 -656.25,656.25 0,170.09 66.1,333.53 184.19,455.87l2784.29 2784.63 -2784.27 2784.6c-127.9,123.5 -200.33,294.08 -200.33,472.02 0,362.38 293.87,656.25 656.25,656.25 177.94,0 348.51,-72.43 472.06,-200.38l2784.23 -2784.49 2784.27 2784.53c123.52,127.91 294.09,200.34 472.03,200.34 362.38,0 656.25,-293.87 656.25,-656.25 0,-177.94 -72.43,-348.52 -200.38,-472.06l-2784.23 -2784.56z"/>
  </g>
 </g>
</svg>
