<?xml version="1.0" encoding="UTF-8"?>
<!DOCTYPE svg PUBLIC "-//W3C//DTD SVG 1.1//EN" "http://www.w3.org/Graphics/SVG/1.1/DTD/svg11.dtd">
<!-- Creator: CorelDRAW 2021 (64 Bit) -->
<svg xmlns="http://www.w3.org/2000/svg" xml:space="preserve" width="184.8mm" height="184.8mm" version="1.1" style="shape-rendering:geometricPrecision; text-rendering:geometricPrecision; image-rendering:optimizeQuality; fill-rule:evenodd; clip-rule:evenodd"
viewBox="0 0 14552.77 14552.77"
 xmlns:xlink="http://www.w3.org/1999/xlink"
 xmlns:xodm="http://www.corel.com/coreldraw/odm/2003">
 <defs>
  <style type="text/css">
   <![CDATA[
    .fil0 {fill:lime;fill-rule:nonzero}
   ]]>
  </style>
 </defs>
 <g id="Camada_x0020_1">
  <metadata id="CorelCorpID_0Corel-Layer"/>
  <path class="fil0" d="M14552.77 7276.38c0,2009.28 -814.45,3828.38 -2131.23,5145.15 -1316.77,1316.78 -3135.87,2131.23 -5145.15,2131.23 -2009.27,0 -3828.37,-814.45 -5145.15,-2131.23 -1316.78,-1316.77 -2131.23,-3135.87 -2131.23,-5145.15 0,-2009.27 814.45,-3828.38 2131.23,-5145.15 1316.78,-1316.78 3135.89,-2131.23 5145.15,-2131.23 2009.28,0 3828.38,814.45 5145.15,2131.23 1316.78,1316.77 2131.23,3135.89 2131.23,5145.15zm-10308.21 330.74c-182.66,0 -330.74,-148.09 -330.74,-330.74 0,-182.66 148.09,-330.74 330.74,-330.74l6063.65 0c182.66,0 330.74,148.09 330.74,330.74 0,182.66 -148.09,330.74 -330.74,330.74l-6063.65 0zm7709.29 4346.72c1197.04,-1197.03 1937.43,-2850.78 1937.43,-4677.46 0,-1826.69 -740.4,-3480.43 -1937.43,-4677.46 -1197.03,-1197.04 -2850.78,-1937.43 -4677.46,-1937.43 -1826.68,0 -3480.42,740.39 -4677.46,1937.43 -1197.04,1197.03 -1937.43,2850.78 -1937.43,4677.46 0,1826.69 740.4,3480.43 1937.43,4677.46 1197.04,1197.04 2850.78,1937.43 4677.46,1937.43 1826.69,0 3480.43,-740.4 4677.46,-1937.43z"/>
 </g>
</svg>
