<?xml version="1.0" encoding="UTF-8"?>
<!DOCTYPE svg PUBLIC "-//W3C//DTD SVG 1.1//EN" "http://www.w3.org/Graphics/SVG/1.1/DTD/svg11.dtd">
<!-- Creator: CorelDRAW 2021 (64 Bit) -->
<svg xmlns="http://www.w3.org/2000/svg" xml:space="preserve" width="148.75mm" height="170.625mm" version="1.1" style="shape-rendering:geometricPrecision; text-rendering:geometricPrecision; image-rendering:optimizeQuality; fill-rule:evenodd; clip-rule:evenodd"
viewBox="0 0 8033.72 9215.15"
 xmlns:xlink="http://www.w3.org/1999/xlink"
 xmlns:xodm="http://www.corel.com/coreldraw/odm/2003">
 <defs>
  <style type="text/css">
   <![CDATA[
    .fil0 {fill:white;fill-rule:nonzero}
   ]]>
  </style>
 </defs>
 <g id="Camada_x0020_1">
  <metadata id="CorelCorpID_0Corel-Layer"/>
  <g id="_2453926095616" data-name="icons">
   <path class="fil0" d="M2599.15 3071.72c-1260.11,0 -2599.15,413.97 -2599.15,1181.43l0 3780.58c0,767.46 1339.03,1181.43 2599.15,1181.43 1260.11,0 2599.15,-413.97 2599.15,-1181.43l0 -3780.58c0,-767.46 -1339.03,-1181.43 -2599.15,-1181.43zm0 5670.86c-1298.16,0 -2126.57,-419.64 -2126.57,-708.86l0 -246.21c501.4,317.09 1329.11,482.49 2126.57,482.49 797.46,0 1625.18,-165.4 2126.57,-482.5l0 246.21c0,289.21 -828.42,708.86 -2126.57,708.86zm0 -945.14c-1298.16,0 -2126.57,-419.64 -2126.57,-708.86l0 -246.21c501.4,317.09 1329.11,482.49 2126.57,482.49 797.46,0 1625.18,-165.4 2126.57,-482.5l0 246.21c0,289.21 -828.42,708.86 -2126.57,708.86zm0 -945.14c-1298.16,0 -2126.57,-419.64 -2126.57,-708.86l0 -246.21c501.4,317.1 1329.11,482.5 2126.57,482.5 797.46,0 1625.18,-165.4 2126.57,-482.5l0 246.21c0,289.21 -828.42,708.86 -2126.57,708.86zm0 -945.14c-1298.16,0 -2126.57,-419.64 -2126.57,-708.86l0 -246.21c501.4,317.1 1329.11,482.5 2126.57,482.5 797.46,0 1625.18,-165.4 2126.57,-482.5l0 246.21c0,289.21 -828.42,708.86 -2126.57,708.86zm0 -945.14c-1298.16,0 -2126.57,-419.64 -2126.57,-708.86 0,-289.21 828.42,-708.86 2126.57,-708.86 1298.15,0 2126.57,419.64 2126.57,708.86 0,289.21 -828.42,708.86 -2126.57,708.86zm2835.43 -4962.01c-1260.11,0 -2599.15,413.97 -2599.15,1181.43l0 945.14c0,767.46 1339.03,1181.43 2599.15,1181.43 797.46,0 1625.18,-165.4 2126.57,-482.5l0 246.21c0,289.21 -828.42,708.86 -2126.57,708.86l0 472.57c797.46,0 1625.18,-165.4 2126.57,-482.5l0 246.21c0,289.21 -828.42,708.86 -2126.57,708.86l0 472.57c797.46,0 1625.18,-165.4 2126.57,-482.5l0 246.21c0,289.21 -828.42,708.86 -2126.57,708.86l0 472.57c797.46,0 1625.18,-165.4 2126.57,-482.5l0 246.21c0,289.21 -828.42,708.86 -2126.57,708.86l0 472.57c797.46,0 1625.18,-165.4 2126.57,-482.5l0 246.21c0,289.21 -828.42,708.86 -2126.57,708.86l0 472.57c1260.11,0 2599.15,-413.97 2599.15,-1181.43l0 -5670.86c0,-767.46 -1339.03,-1181.43 -2599.15,-1181.43zm0 472.57c1298.16,0 2126.57,419.64 2126.57,708.86 0,289.21 -828.42,708.86 -2126.57,708.86 -1298.15,0 -2126.57,-419.64 -2126.57,-708.86 0,-289.21 828.42,-708.86 2126.57,-708.86zm0 2362.86c-1298.16,0 -2126.57,-419.64 -2126.57,-708.86l0 -246.21c501.4,317.1 1329.11,482.5 2126.57,482.5 797.46,0 1625.18,-165.4 2126.57,-482.5l0 246.21c0,289.21 -828.42,708.86 -2126.57,708.86z"/>
  </g>
 </g>
</svg>
