<?xml version="1.0" encoding="UTF-8"?>
<!DOCTYPE svg PUBLIC "-//W3C//DTD SVG 1.1//EN" "http://www.w3.org/Graphics/SVG/1.1/DTD/svg11.dtd">
<!-- Creator: CorelDRAW 2021 (64 Bit) -->
<svg xmlns="http://www.w3.org/2000/svg" xml:space="preserve" width="148.75mm" height="170.625mm" version="1.1" style="shape-rendering:geometricPrecision; text-rendering:geometricPrecision; image-rendering:optimizeQuality; fill-rule:evenodd; clip-rule:evenodd"
viewBox="0 0 14875.04 17062.53"
 xmlns:xlink="http://www.w3.org/1999/xlink"
 xmlns:xodm="http://www.corel.com/coreldraw/odm/2003">
 <defs>
  <style type="text/css">
   <![CDATA[
    .fil0 {fill:white;fill-rule:nonzero}
   ]]>
  </style>
 </defs>
 <g id="Camada_x0020_1">
  <metadata id="CorelCorpID_0Corel-Layer"/>
  <g id="_2453926095616" data-name="icons">
   <path class="fil0" d="M4812.52 5687.51c-2333.18,0 -4812.52,766.49 -4812.52,2187.5l0 7000.02c0,1421.01 2479.31,2187.5 4812.52,2187.5 2333.18,0 4812.52,-766.49 4812.52,-2187.5l0 -7000.02c0,-1421.01 -2479.31,-2187.5 -4812.52,-2187.5zm0 10500c-2403.63,0 -3937.5,-776.99 -3937.5,-1312.5l0 -455.88c928.38,587.11 2460.94,893.36 3937.5,893.36 1476.55,0 3009.14,-306.25 3937.5,-893.38l0 455.88c0,535.49 -1533.88,1312.5 -3937.5,1312.5l0 0.02zm0 -1749.99c-2403.63,0 -3937.5,-776.99 -3937.5,-1312.5l0 -455.88c928.38,587.11 2460.94,893.36 3937.5,893.36 1476.55,0 3009.14,-306.25 3937.5,-893.38l0 455.88c0,535.49 -1533.88,1312.5 -3937.5,1312.5l0 0.02zm0 -1749.99c-2403.63,0 -3937.5,-776.99 -3937.5,-1312.5l0 -455.88c928.38,587.13 2460.94,893.38 3937.5,893.38 1476.55,0 3009.14,-306.25 3937.5,-893.38l0 455.88c0,535.49 -1533.88,1312.5 -3937.5,1312.5zm0 -1750c-2403.63,0 -3937.5,-776.99 -3937.5,-1312.5l0 -455.88c928.38,587.13 2460.94,893.38 3937.5,893.38 1476.55,0 3009.14,-306.25 3937.5,-893.38l0 455.88c0,535.49 -1533.88,1312.5 -3937.5,1312.5zm0 -1749.99c-2403.63,0 -3937.5,-776.99 -3937.5,-1312.5 0,-535.49 1533.88,-1312.5 3937.5,-1312.5 2403.62,0 3937.5,776.99 3937.5,1312.5 0,535.49 -1533.88,1312.5 -3937.5,1312.5zm5250.01 -9187.52c-2333.18,0 -4812.52,766.49 -4812.52,2187.5l0 1749.99c0,1421.01 2479.31,2187.5 4812.52,2187.5 1476.55,0 3009.14,-306.25 3937.5,-893.38l0 455.88c0,535.49 -1533.88,1312.5 -3937.5,1312.5l0 875c1476.55,0 3009.14,-306.25 3937.5,-893.38l0 455.88c0,535.49 -1533.88,1312.5 -3937.5,1312.5l0 875c1476.55,0 3009.14,-306.25 3937.5,-893.38l0 455.88c0,535.49 -1533.88,1312.5 -3937.5,1312.5l0 875c1476.55,0 3009.14,-306.25 3937.5,-893.38l0 455.88c0,535.49 -1533.88,1312.5 -3937.5,1312.5l0 875c1476.55,0 3009.14,-306.25 3937.5,-893.38l0 455.88c0,535.49 -1533.88,1312.5 -3937.5,1312.5l0 875c2333.18,0 4812.52,-766.49 4812.52,-2187.5l0 -10500.01c0,-1421.01 -2479.31,-2187.5 -4812.52,-2187.5l0 0.01zm0 875c2403.63,0 3937.5,776.99 3937.5,1312.5 0,535.49 -1533.88,1312.5 -3937.5,1312.5 -2403.62,0 -3937.5,-776.99 -3937.5,-1312.5 0,-535.49 1533.88,-1312.5 3937.5,-1312.5zm0 4375.01c-2403.63,0 -3937.5,-776.99 -3937.5,-1312.5l0 -455.88c928.38,587.13 2460.94,893.38 3937.5,893.38 1476.55,0 3009.14,-306.25 3937.5,-893.38l0 455.88c0,535.49 -1533.88,1312.5 -3937.5,1312.5z"/>
  </g>
 </g>
</svg>
