<?xml version="1.0" encoding="UTF-8"?>
<!DOCTYPE svg PUBLIC "-//W3C//DTD SVG 1.1//EN" "http://www.w3.org/Graphics/SVG/1.1/DTD/svg11.dtd">
<!-- Creator: CorelDRAW 2021 (64 Bit) -->
<svg xmlns="http://www.w3.org/2000/svg" xml:space="preserve" width="120.312mm" height="120.313mm" version="1.1" style="shape-rendering:geometricPrecision; text-rendering:geometricPrecision; image-rendering:optimizeQuality; fill-rule:evenodd; clip-rule:evenodd"
viewBox="0 0 12031.26 12031.27"
 xmlns:xlink="http://www.w3.org/1999/xlink"
 xmlns:xodm="http://www.corel.com/coreldraw/odm/2003">
 <defs>
  <style type="text/css">
   <![CDATA[
    .fil0 {fill:#FF0009;fill-rule:nonzero}
   ]]>
  </style>
 </defs>
 <g id="Camada_x0020_1">
  <metadata id="CorelCorpID_0Corel-Layer"/>
  <path class="fil0" d="M3828.12 6343.76l1859.37 0 0 1859.38c0.01,181.19 146.95,328.13 328.13,328.13 181.19,0 328.13,-146.94 328.13,-328.13l0 -1859.38 1859.37 0c181.19,0.01 328.13,-146.93 328.13,-328.12 0,-181.19 -146.94,-328.13 -328.13,-328.13l-1859.37 0 0 -1859.37c0,-181.19 -146.94,-328.13 -328.13,-328.13 -181.18,0 -328.12,146.94 -328.12,328.13l0 1859.38 -1859.38 -0.01c-181.18,0 -328.12,146.94 -328.12,328.13 0,181.19 146.94,328.13 328.13,328.13l-0.01 -0.01zm2187.5 -6343.76c-3321.77,0 -6015.63,2693.85 -6015.63,6015.64 2.94,3320.02 2695.31,6012.5 6015.63,6015.63 0.11,0 0.22,0 0.33,0.01 3321.63,-0.19 6015.3,-2693.97 6015.3,-6015.64 0,-3321.78 -2693.85,-6015.64 -6015.64,-6015.64zm-5444.31 6015.64c0,-3006.3 2438.01,-5444.32 5444.31,-5444.32 3006.3,0 5444.32,2438.02 5444.32,5444.32 0,3006.2 -2437.86,5444.15 -5444.02,5444.32 -0.1,0 -0.2,0 -0.3,-0.01 -3004.98,-2.82 -5441.65,-2439.59 -5444.31,-5444.31z"/>
 </g>
</svg>
